<?xml version="1.0" encoding="utf-8"?>
<!-- Generator: Adobe Illustrator 22.1.0, SVG Export Plug-In . SVG Version: 6.00 Build 0)  -->
<svg version="1.1" id="レイヤー_1" xmlns="http://www.w3.org/2000/svg" xmlns:xlink="http://www.w3.org/1999/xlink" x="0px"
	 y="0px" viewBox="0 0 1000 1000" style="enable-background:new 0 0 1000 1000;" xml:space="preserve">
<style type="text/css">
	.st0{fill:#FFFFFF;}
</style>
<g>
	<path class="st0" d="M500,0C223.9,0,0,223.9,0,500s223.9,500,500,500s500-223.9,500-500S776.1,0,500,0z M500,950
		C251.5,950,50,748.5,50,500S251.5,50,500,50s450,201.5,450,450S748.5,950,500,950z"/>
	<path class="st0" d="M633.3,350c-13.8,0-25,11.2-25,25v125v125c0,13.8,11.2,25,25,25s25-11.2,25-25V375
		C658.3,361.2,647.1,350,633.3,350z"/>
	<path class="st0" d="M595.8,478.4L595.8,478.4l-216.5-125c0,0,0,0,0,0c-12-6.9-27.2-2.8-34.2,9.2c-2.3,3.9-3.4,8.3-3.3,12.5h0
		l0,250c0,0,0,0,0,0c0,13.8,11.2,25,25,25c4.6,0,8.8-1.2,12.5-3.4l0,0l216.5-125l0,0c7.5-4.3,12.5-12.4,12.5-21.6
		C608.3,490.7,603.2,482.7,595.8,478.4z M391.7,581.7V418.3L533.3,500L391.7,581.7z"/>
</g>
</svg>
