<?xml version="1.0" encoding="utf-8"?>
<!-- Generator: Adobe Illustrator 22.1.0, SVG Export Plug-In . SVG Version: 6.00 Build 0)  -->
<svg version="1.1" id="レイヤー_1" xmlns="http://www.w3.org/2000/svg" xmlns:xlink="http://www.w3.org/1999/xlink" x="0px"
	 y="0px" viewBox="0 0 1000 1000" style="enable-background:new 0 0 1000 1000;" xml:space="preserve">
<style type="text/css">
	.st0{fill:#FFFFFF;}
</style>
<g>
	<path class="st0" d="M500,0C223.9,0,0,223.9,0,500s223.9,500,500,500s500-223.9,500-500S776.1,0,500,0z M500,950
		C251.5,950,50,748.5,50,500S251.5,50,500,50s450,201.5,450,450S748.5,950,500,950z"/>
	<path class="st0" d="M366.7,350c-13.8,0-25,11.2-25,25v250c0,13.8,11.2,25,25,25s25-11.2,25-25V500V375
		C391.7,361.2,380.6,350,366.7,350z"/>
	<path class="st0" d="M654.9,362.5c-6.9-12-22.2-16.1-34.2-9.2c0,0,0,0,0,0l-216.5,125l0,0c-7.5,4.3-12.5,12.4-12.5,21.6
		s5,17.3,12.5,21.6l0,0l216.5,125l0,0c3.7,2.1,7.9,3.4,12.5,3.4c13.8,0,25-11.2,25-25v0V375h0C658.3,370.8,657.2,366.4,654.9,362.5z
		 M608.3,418.3v163.4L466.7,500L608.3,418.3z"/>
</g>
</svg>
