<?xml version="1.0" encoding="utf-8"?>
<!-- Generator: Adobe Illustrator 22.1.0, SVG Export Plug-In . SVG Version: 6.00 Build 0)  -->
<svg version="1.1" id="レイヤー_1" xmlns="http://www.w3.org/2000/svg" xmlns:xlink="http://www.w3.org/1999/xlink" x="0px"
	 y="0px" viewBox="0 0 1000 1000" style="enable-background:new 0 0 1000 1000;" xml:space="preserve">
<style type="text/css">
	.st0{fill:#4286F4;}
</style>
<g>
	<path class="st0" d="M500,0C223.9,0,0,223.9,0,500s223.9,500,500,500s500-223.9,500-500S776.1,0,500,0z M500,950
		C251.5,950,50,748.5,50,500S251.5,50,500,50s450,201.5,450,450S748.5,950,500,950z"/>
	<circle class="st0" cx="500" cy="315" r="40"/>
	<circle class="st0" cx="500" cy="685" r="40"/>
	
		<ellipse transform="matrix(0.1713 -0.9852 0.9852 0.1713 -119.8971 672.4574)" class="st0" cx="339.8" cy="407.5" rx="40" ry="40"/>
	
		<ellipse transform="matrix(0.9659 -0.2588 0.2588 0.9659 -130.8539 191.0648)" class="st0" cx="660.2" cy="592.5" rx="40" ry="40"/>
	
		<ellipse transform="matrix(0.5187 -0.8549 0.8549 0.5187 -343.0224 575.6511)" class="st0" cx="339.8" cy="592.5" rx="40" ry="40"/>
	<ellipse transform="matrix(0.2588 -0.9659 0.9659 0.2588 95.724 939.7499)" class="st0" cx="660.2" cy="407.5" rx="40" ry="40"/>
</g>
</svg>
