<?xml version="1.0" encoding="utf-8"?>
<!-- Generator: Adobe Illustrator 22.1.0, SVG Export Plug-In . SVG Version: 6.00 Build 0)  -->
<svg version="1.1" id="レイヤー_1" xmlns="http://www.w3.org/2000/svg" xmlns:xlink="http://www.w3.org/1999/xlink" x="0px"
	 y="0px" viewBox="0 0 1000 1000" style="enable-background:new 0 0 1000 1000;" xml:space="preserve">
<style type="text/css">
	.st0{fill:#FFFFFF;}
</style>
<g>
	<path class="st0" d="M500,0C223.9,0,0,223.9,0,500s223.9,500,500,500s500-223.9,500-500S776.1,0,500,0z M500,950
		C251.5,950,50,748.5,50,500S251.5,50,500,50s450,201.5,450,450S748.5,950,500,950z"/>
	<path class="st0" d="M500,235L500,235c-16.6,0-30,13.4-30,30v100c0,16.6,13.4,30,30,30h0c16.6,0,30-13.4,30-30V265
		C530,248.4,516.6,235,500,235z"/>
	<path class="st0" d="M500,605L500,605c-16.6,0-30,13.4-30,30v100c0,16.6,13.4,30,30,30h0c16.6,0,30-13.4,30-30V635
		C530,618.4,516.6,605,500,605z"/>
	<path class="st0" d="M398.1,406.5l-86.6-50c-14.3-8.3-32.7-3.4-41,11c-8.3,14.3-3.4,32.7,11,41l86.6,50c14.3,8.3,32.7,3.4,41-11h0
		C417.4,433.2,412.4,414.8,398.1,406.5z"/>
	<path class="st0" d="M718.5,591.5l-86.6-50c-14.3-8.3-32.7-3.4-41,11s-3.4,32.7,11,41l86.6,50c14.3,8.3,32.7,3.4,41-11h0
		C737.8,618.2,732.9,599.8,718.5,591.5z"/>
	<path class="st0" d="M409.1,552.5c-8.3-14.3-26.6-19.3-41-11l-86.6,50c-14.3,8.3-19.3,26.6-11,41c8.3,14.3,26.6,19.3,41,11l86.6-50
		C412.4,585.2,417.4,566.8,409.1,552.5L409.1,552.5z"/>
	<path class="st0" d="M729.5,367.5c-8.3-14.3-26.6-19.3-41-11l-86.6,50c-14.3,8.3-19.3,26.6-11,41s26.6,19.3,41,11l86.6-50
		C732.9,400.2,737.8,381.8,729.5,367.5L729.5,367.5z"/>
</g>
</svg>
