<?xml version="1.0" encoding="utf-8"?>
<!-- Generator: Adobe Illustrator 22.1.0, SVG Export Plug-In . SVG Version: 6.00 Build 0)  -->
<svg version="1.1" id="レイヤー_1" xmlns="http://www.w3.org/2000/svg" xmlns:xlink="http://www.w3.org/1999/xlink" x="0px"
	 y="0px" viewBox="0 0 1000 1000" style="enable-background:new 0 0 1000 1000;" xml:space="preserve">
<style type="text/css">
	.st0{fill:#4286F4;}
</style>
<g>
	<path class="st0" d="M500,0C223.9,0,0,223.9,0,500s223.9,500,500,500s500-223.9,500-500S776.1,0,500,0z M500,950
		C251.5,950,50,748.5,50,500S251.5,50,500,50s450,201.5,450,450S748.5,950,500,950z"/>
	<path class="st0" d="M600,375c-40.9,0-77.2,19.6-100,50c-15.7,20.9-25,46.9-25,75c0,41.4-33.6,75-75,75c-41.4,0-75-33.6-75-75
		c0-41.4,33.6-75,75-75c1.3,0,2.6,0,3.8,0.1c0.7,0,1.3,0.1,2,0.2c0.6,0,1.2,0.1,1.7,0.1c0.9,0.1,1.9,0.2,2.8,0.3
		c0.3,0,0.6,0.1,0.9,0.1c1.1,0.2,2.1,0.4,3.2,0.6c0.1,0,0.3,0,0.4,0.1c1.2,0.2,2.3,0.5,3.5,0.8c0,0,0.1,0,0.1,0
		c3.5,0.9,7,2,10.3,3.4c0,0,0,0,0,0l0,0c12.8,5.3,27.4-0.8,32.7-13.5c5.3-12.8-0.8-27.4-13.5-32.7c0,0,0,0,0,0l0,0c0,0,0,0,0,0
		c-2.8-1.1-5.6-2.2-8.4-3.1c0,0,0,0,0,0c-0.9-0.3-1.9-0.6-2.9-0.9c0,0,0,0,0,0c-0.9-0.3-1.9-0.6-2.8-0.8c0,0-0.1,0-0.1,0
		c-0.9-0.3-1.9-0.5-2.8-0.7c-0.1,0-0.1,0-0.2,0c-0.9-0.2-1.8-0.5-2.8-0.7c-0.1,0-0.2,0-0.3-0.1c-0.9-0.2-1.8-0.4-2.7-0.6
		c-0.1,0-0.3-0.1-0.4-0.1c-0.9-0.2-1.7-0.3-2.6-0.5c-0.2,0-0.4-0.1-0.6-0.1c-0.8-0.1-1.6-0.3-2.4-0.4c-0.3,0-0.5-0.1-0.8-0.1
		c-0.8-0.1-1.5-0.2-2.3-0.3c-0.3,0-0.6-0.1-0.9-0.1c-0.7-0.1-1.4-0.2-2.2-0.2c-0.4,0-0.8-0.1-1.2-0.1c-0.6-0.1-1.3-0.1-1.9-0.2
		c-0.5,0-1-0.1-1.4-0.1c-0.6,0-1.1-0.1-1.7-0.1c-0.6,0-1.3,0-1.9-0.1c-0.4,0-0.8,0-1.3,0c-1.1,0-2.1,0-3.2,0h0c-69,0-125,56-125,125
		s56,125,125,125c40.9,0,77.2-19.6,100-50c15.7-20.9,25-46.9,25-75c0-41.4,33.6-75,75-75c41.4,0,75,33.6,75,75c0,41.4-33.6,75-75,75
		c-1.3,0-2.6,0-3.8-0.1c-0.7,0-1.4-0.1-2.1-0.2c-0.6,0-1.1-0.1-1.7-0.1c-0.9-0.1-1.9-0.2-2.8-0.3c-0.3,0-0.6-0.1-0.9-0.1
		c-1.1-0.2-2.2-0.4-3.2-0.6c-0.1,0-0.3,0-0.4-0.1c-1.2-0.2-2.3-0.5-3.5-0.8c0,0-0.1,0-0.1,0c-3.5-0.9-7-2-10.3-3.4c0,0,0,0,0,0l0,0
		c-12.8-5.3-27.4,0.8-32.7,13.5c-5.3,12.8,0.8,27.4,13.5,32.7c0,0,0,0,0,0l0,0c0,0,0,0,0,0c3.7,1.5,7.4,2.9,11.3,4.1c0,0,0,0,0,0
		c0.9,0.3,1.9,0.6,2.9,0.8c0,0,0.1,0,0.1,0c0.9,0.3,1.9,0.5,2.8,0.8c0.1,0,0.1,0,0.2,0c0.9,0.2,1.8,0.5,2.8,0.7c0.1,0,0.2,0,0.3,0.1
		c0.9,0.2,1.8,0.4,2.7,0.6c0.1,0,0.3,0.1,0.4,0.1c0.9,0.2,1.7,0.3,2.6,0.5c0.2,0,0.4,0.1,0.6,0.1c0.8,0.1,1.6,0.3,2.5,0.4
		c0.2,0,0.5,0.1,0.7,0.1c0.8,0.1,1.5,0.2,2.3,0.3c0.3,0,0.6,0.1,0.9,0.1c0.7,0.1,1.4,0.2,2.2,0.2c0.4,0,0.8,0.1,1.2,0.1
		c0.6,0.1,1.3,0.1,1.9,0.2c0.5,0,1,0.1,1.4,0.1c0.6,0,1.1,0.1,1.7,0.1c0.6,0,1.3,0,1.9,0.1c0.4,0,0.8,0,1.3,0c1.1,0,2.1,0,3.2,0h0
		c69,0,125-56,125-125S669,375,600,375z"/>
</g>
</svg>
