<?xml version="1.0" encoding="utf-8"?>
<!-- Generator: Adobe Illustrator 22.1.0, SVG Export Plug-In . SVG Version: 6.00 Build 0)  -->
<svg version="1.1" id="レイヤー_1" xmlns="http://www.w3.org/2000/svg" xmlns:xlink="http://www.w3.org/1999/xlink" x="0px"
	 y="0px" viewBox="0 0 1000 1000" style="enable-background:new 0 0 1000 1000;" xml:space="preserve">
<style type="text/css">
	.st0{fill:#FFFFFF;}
</style>
<g>
	<path class="st0" d="M500,0C223.9,0,0,223.9,0,500s223.9,500,500,500s500-223.9,500-500S776.1,0,500,0z M500,950
		C251.5,950,50,748.5,50,500S251.5,50,500,50s450,201.5,450,450S748.5,950,500,950z"/>
	<path class="st0" d="M623.7,376.3L623.7,376.3c-10.7-10.7-28-10.7-38.7,0L500,461.3l-85.1-85.1c-10.7-10.7-28-10.7-38.7,0h0
		c-10.7,10.7-10.7,28,0,38.7l85.1,85.1l-85.1,85.1c-10.7,10.7-10.7,28,0,38.7h0c10.7,10.7,28,10.7,38.7,0l85.1-85.1l85.1,85.1
		c10.7,10.7,28,10.7,38.7,0h0c10.7-10.7,10.7-28,0-38.7L538.7,500l85.1-85.1C634.4,404.2,634.4,386.9,623.7,376.3z"/>
</g>
</svg>
