<?xml version="1.0" encoding="utf-8"?>
<!-- Generator: Adobe Illustrator 22.1.0, SVG Export Plug-In . SVG Version: 6.00 Build 0)  -->
<svg version="1.1" id="レイヤー_1" xmlns="http://www.w3.org/2000/svg" xmlns:xlink="http://www.w3.org/1999/xlink" x="0px"
	 y="0px" viewBox="0 0 1000 1000" style="enable-background:new 0 0 1000 1000;" xml:space="preserve">
<style type="text/css">
	.st0{fill:#FFFFFF;}
</style>
<g>
	<path class="st0" d="M500,0C223.9,0,0,223.9,0,500s223.9,500,500,500s500-223.9,500-500S776.1,0,500,0z M500,950
		C251.5,950,50,748.5,50,500S251.5,50,500,50s450,201.5,450,450S748.5,950,500,950z"/>
	<path class="st0" d="M516.1,482.7l-156.5-90.4c-13.3-7.7-30,1.9-30,17.3v180.7c0,15.4,16.7,25,30,17.3l156.5-90.4
		c6.7-3.8,10-10.6,10-17.3S522.8,486.5,516.1,482.7z M372.9,550V450l86.6,50L372.9,550z"/>
	<path class="st0" d="M712.6,482.7l-156.5-90.4c-13.3-7.7-30,1.9-30,17.3V500v90.4c0,15.4,16.7,25,30,17.3l156.5-90.4
		C725.9,509.6,725.9,490.4,712.6,482.7z M569.4,550V450l86.6,50L569.4,550z"/>
</g>
</svg>
