<?xml version="1.0" encoding="utf-8"?>
<!-- Generator: Adobe Illustrator 22.1.0, SVG Export Plug-In . SVG Version: 6.00 Build 0)  -->
<svg version="1.1" id="レイヤー_1" xmlns="http://www.w3.org/2000/svg" xmlns:xlink="http://www.w3.org/1999/xlink" x="0px"
	 y="0px" viewBox="0 0 1000 1000" style="enable-background:new 0 0 1000 1000;" xml:space="preserve">
<style type="text/css">
	.st0{fill:#FFFFFF;}
</style>
<g>
	<path class="st0" d="M500,0C223.9,0,0,223.9,0,500s223.9,500,500,500s500-223.9,500-500S776.1,0,500,0z M500,950
		C251.5,950,50,748.5,50,500S251.5,50,500,50s450,201.5,450,450S748.5,950,500,950z"/>
	<path class="st0" d="M509.1,340.9L509.1,340.9c-9.8-9.8-25.6-9.8-35.4,0s-9.8,25.6,0,35.4l0,0C505.4,407.9,525,451.7,525,500
		c0,48.3-19.6,92.1-51.3,123.7h0c-9.8,9.8-9.8,25.6,0,35.4c9.8,9.8,25.6,9.8,35.4,0C551.3,616.9,575,559.7,575,500
		S551.3,383.1,509.1,340.9z"/>
	<path class="st0" d="M544.5,270.2c-9.8,9.8-9.8,25.6,0,35.4C594.2,355.3,625,424.1,625,500s-30.8,144.7-80.5,194.5
		c-9.8,9.8-9.8,25.6,0,35.4s25.6,9.8,35.4,0C640.7,668.9,675,586.2,675,500c0-86.2-34.3-168.9-95.2-229.8
		C570,260.4,554.2,260.4,544.5,270.2z"/>
	<path class="st0" d="M438.4,411.6L438.4,411.6c-9.8-9.8-25.6-9.8-35.4,0s-9.8,25.6,0,35.4l0,0c13.6,13.6,22,32.3,22,53
		c0,20.7-8.4,39.5-22,53l0,0c-9.8,9.8-9.8,25.6,0,35.4s25.6,9.8,35.4,0h0C461.8,565,475,533.1,475,500S461.8,435,438.4,411.6z"/>
	<path class="st0" d="M350,475c-13.8,0-25,11.2-25,25c0,13.8,11.2,25,25,25c6.9,0,13.2-2.8,17.7-7.3c4.5-4.5,7.3-10.8,7.3-17.7
		c0-6.9-2.8-13.2-7.3-17.7C363.2,477.8,356.9,475,350,475z"/>
</g>
</svg>
