<?xml version="1.0" encoding="utf-8"?>
<!-- Generator: Adobe Illustrator 22.1.0, SVG Export Plug-In . SVG Version: 6.00 Build 0)  -->
<svg version="1.1" id="レイヤー_1" xmlns="http://www.w3.org/2000/svg" xmlns:xlink="http://www.w3.org/1999/xlink" x="0px"
	 y="0px" viewBox="0 0 500 500" style="enable-background:new 0 0 500 500;" xml:space="preserve">
<style type="text/css">
	.st0{fill:#FFFFFF;}
</style>
<path class="st0" d="M328.3,125c-1.3,0-2.6,0.2-3.8,0.5l0,0L203,158.1l-14.1,3.8l0,0c-6.2,1.7-10.8,7.4-10.8,14.1v14.6v17.6v14.6
	v113.3c-4.3-4.9-10.6-8-17.6-8c-12.9,0-23.4,10.5-23.4,23.4c0,12.9,10.5,23.4,23.4,23.4c12.9,0,23.4-10.5,23.4-23.4V234.5v-11.7h0
	c0-3.9,2.6-7.4,6.5-8.5l2.3-0.6l9-2.4l2.8-0.8l107.4-28.8l2.8-0.8l11.3-3l0,0l0,0l0,0c0.8-0.2,1.5-0.3,2.3-0.3
	c3.9,0,7.4,2.6,8.5,6.5c0.2,0.8,0.3,1.5,0.3,2.3h0v11.7v101.6c-4.3-4.9-10.6-8-17.6-8c-12.9,0-23.4,10.5-23.4,23.4
	c0,12.9,10.5,23.4,23.4,23.4c12.9,0,23.4-10.5,23.4-23.4V186.5v-14.6v-17.6v-14.6C343,131.6,336.4,125,328.3,125z M160.4,369.1
	c-9.7,0-17.6-7.9-17.6-17.6c0-9.7,7.9-17.6,17.6-17.6c9.7,0,17.6,7.9,17.6,17.6C178,361.3,170.1,369.1,160.4,369.1z M319.6,332.8
	c-9.7,0-17.6-7.9-17.6-17.6c0-9.7,7.9-17.6,17.6-17.6c9.7,0,17.6,7.9,17.6,17.6C337.1,324.9,329.2,332.8,319.6,332.8z M337.1,171.8
	v2.9c-2.5-1.9-5.6-2.9-8.8-2.9c-1.3,0-2.5,0.1-3.8,0.5l-14.1,3.8l0,0L203,204.9l-12.3,3.3l-1.9,0.5c-1.9,0.5-3.5,1.3-5,2.4v-2.9
	v-17.6v-2.9V176c0-4.1,2.8-7.5,6.5-8.5l0,0l11.3-3l2.8-0.8l107.4-28.8l2.8-0.8l11.3-3l0,0c0.7-0.2,1.5-0.3,2.3-0.3
	c4.8,0,8.8,3.9,8.8,8.8v11.7v2.9V171.8z"/>
</svg>
