<?xml version="1.0" encoding="utf-8"?>
<!-- Generator: Adobe Illustrator 22.1.0, SVG Export Plug-In . SVG Version: 6.00 Build 0)  -->
<svg version="1.1" id="レイヤー_1" xmlns="http://www.w3.org/2000/svg" xmlns:xlink="http://www.w3.org/1999/xlink" x="0px"
	 y="0px" viewBox="0 0 500 500" style="enable-background:new 0 0 500 500;" xml:space="preserve">
<style type="text/css">
	.st0{fill:#4286F4;}
</style>
<g>
	<g>
		<g>
			<circle class="st0" cx="250" cy="4.5" r="4.5"/>
		</g>
		<g>
			<circle class="st0" cx="250" cy="495.5" r="4.5"/>
		</g>
	</g>
	<g>
		<g>
			<circle class="st0" cx="228.6" cy="5.4" r="4.5"/>
		</g>
		<g>
			<circle class="st0" cx="271.4" cy="494.6" r="4.5"/>
		</g>
	</g>
	<g>
		<g>
			<circle class="st0" cx="207.4" cy="8.2" r="4.5"/>
		</g>
		<g>
			<circle class="st0" cx="292.6" cy="491.8" r="4.5"/>
		</g>
	</g>
	<g>
		<g>
			<circle class="st0" cx="186.5" cy="12.9" r="4.5"/>
		</g>
		<g>
			<circle class="st0" cx="313.5" cy="487.1" r="4.5"/>
		</g>
	</g>
	<g>
		<g>
			<circle class="st0" cx="166" cy="19.3" r="4.5"/>
		</g>
		<g>
			<circle class="st0" cx="334" cy="480.7" r="4.5"/>
		</g>
	</g>
	<g>
		<g>
			<circle class="st0" cx="146.2" cy="27.5" r="4.5"/>
		</g>
		<g>
			<circle class="st0" cx="353.8" cy="472.5" r="4.5"/>
		</g>
	</g>
	<g>
		<g>
			<circle class="st0" cx="127.2" cy="37.4" r="4.5"/>
		</g>
		<g>
			<circle class="st0" cx="372.8" cy="462.6" r="4.5"/>
		</g>
	</g>
	<g>
		<g>
			<circle class="st0" cx="109.2" cy="48.9" r="4.5"/>
		</g>
		<g>
			<circle class="st0" cx="390.8" cy="451.1" r="4.5"/>
		</g>
	</g>
	<g>
		<g>
			<circle class="st0" cx="92.2" cy="61.9" r="4.5"/>
		</g>
		<g>
			<circle class="st0" cx="407.8" cy="438.1" r="4.5"/>
		</g>
	</g>
	<g>
		<g>
			<circle class="st0" cx="76.4" cy="76.4" r="4.5"/>
		</g>
		<g>
			<circle class="st0" cx="423.6" cy="423.6" r="4.5"/>
		</g>
	</g>
	<g>
		<g>
			<circle class="st0" cx="61.9" cy="92.2" r="4.5"/>
		</g>
		<g>
			<circle class="st0" cx="438.1" cy="407.8" r="4.5"/>
		</g>
	</g>
	<g>
		<g>
			<circle class="st0" cx="48.9" cy="109.2" r="4.5"/>
		</g>
		<g>
			<circle class="st0" cx="451.1" cy="390.8" r="4.5"/>
		</g>
	</g>
	<g>
		<g>
			<circle class="st0" cx="37.4" cy="127.2" r="4.5"/>
		</g>
		<g>
			<circle class="st0" cx="462.6" cy="372.8" r="4.5"/>
		</g>
	</g>
	<g>
		<g>
			<circle class="st0" cx="27.5" cy="146.2" r="4.5"/>
		</g>
		<g>
			<circle class="st0" cx="472.5" cy="353.8" r="4.5"/>
		</g>
	</g>
	<g>
		<g>
			<circle class="st0" cx="19.3" cy="166" r="4.5"/>
		</g>
		<g>
			<circle class="st0" cx="480.7" cy="334" r="4.5"/>
		</g>
	</g>
	<g>
		<g>
			<circle class="st0" cx="12.9" cy="186.5" r="4.5"/>
		</g>
		<g>
			<circle class="st0" cx="487.1" cy="313.5" r="4.5"/>
		</g>
	</g>
	<g>
		<g>
			<circle class="st0" cx="8.2" cy="207.4" r="4.5"/>
		</g>
		<g>
			<circle class="st0" cx="491.8" cy="292.6" r="4.5"/>
		</g>
	</g>
	<g>
		<g>
			<circle class="st0" cx="5.4" cy="228.6" r="4.5"/>
		</g>
		<g>
			<circle class="st0" cx="494.6" cy="271.4" r="4.5"/>
		</g>
	</g>
	<g>
		<g>
			<circle class="st0" cx="4.5" cy="250" r="4.5"/>
		</g>
		<g>
			<circle class="st0" cx="495.5" cy="250" r="4.5"/>
		</g>
	</g>
	<g>
		<g>
			<circle class="st0" cx="4.5" cy="250" r="4.5"/>
		</g>
		<g>
			<circle class="st0" cx="495.5" cy="250" r="4.5"/>
		</g>
	</g>
	<g>
		<g>
			<circle class="st0" cx="5.4" cy="271.4" r="4.5"/>
		</g>
		<g>
			<circle class="st0" cx="494.6" cy="228.6" r="4.5"/>
		</g>
	</g>
	<g>
		<g>
			<circle class="st0" cx="8.2" cy="292.6" r="4.5"/>
		</g>
		<g>
			<circle class="st0" cx="491.8" cy="207.4" r="4.5"/>
		</g>
	</g>
	<g>
		<g>
			<circle class="st0" cx="12.9" cy="313.5" r="4.5"/>
		</g>
		<g>
			<circle class="st0" cx="487.1" cy="186.5" r="4.5"/>
		</g>
	</g>
	<g>
		<g>
			<circle class="st0" cx="19.3" cy="334" r="4.5"/>
		</g>
		<g>
			<circle class="st0" cx="480.7" cy="166" r="4.5"/>
		</g>
	</g>
	<g>
		<g>
			<circle class="st0" cx="27.5" cy="353.8" r="4.5"/>
		</g>
		<g>
			<circle class="st0" cx="472.5" cy="146.2" r="4.5"/>
		</g>
	</g>
	<g>
		<g>
			<circle class="st0" cx="37.4" cy="372.8" r="4.5"/>
		</g>
		<g>
			<circle class="st0" cx="462.6" cy="127.2" r="4.5"/>
		</g>
	</g>
	<g>
		<g>
			<circle class="st0" cx="48.9" cy="390.8" r="4.5"/>
		</g>
		<g>
			<circle class="st0" cx="451.1" cy="109.2" r="4.5"/>
		</g>
	</g>
	<g>
		<g>
			<circle class="st0" cx="61.9" cy="407.8" r="4.5"/>
		</g>
		<g>
			<circle class="st0" cx="438.1" cy="92.2" r="4.5"/>
		</g>
	</g>
	<g>
		<g>
			<circle class="st0" cx="76.4" cy="423.6" r="4.5"/>
		</g>
		<g>
			<circle class="st0" cx="423.6" cy="76.4" r="4.5"/>
		</g>
	</g>
	<g>
		<g>
			<circle class="st0" cx="92.2" cy="438.1" r="4.5"/>
		</g>
		<g>
			<circle class="st0" cx="407.8" cy="61.9" r="4.5"/>
		</g>
	</g>
	<g>
		<g>
			<circle class="st0" cx="109.2" cy="451.1" r="4.5"/>
		</g>
		<g>
			<circle class="st0" cx="390.8" cy="48.9" r="4.5"/>
		</g>
	</g>
	<g>
		<g>
			<circle class="st0" cx="127.2" cy="462.6" r="4.5"/>
		</g>
		<g>
			<circle class="st0" cx="372.8" cy="37.4" r="4.5"/>
		</g>
	</g>
	<g>
		<g>
			<circle class="st0" cx="146.2" cy="472.5" r="4.5"/>
		</g>
		<g>
			<circle class="st0" cx="353.8" cy="27.5" r="4.5"/>
		</g>
	</g>
	<g>
		<g>
			<circle class="st0" cx="166" cy="480.7" r="4.5"/>
		</g>
		<g>
			<circle class="st0" cx="334" cy="19.3" r="4.5"/>
		</g>
	</g>
	<g>
		<g>
			<circle class="st0" cx="186.5" cy="487.1" r="4.5"/>
		</g>
		<g>
			<circle class="st0" cx="313.5" cy="12.9" r="4.5"/>
		</g>
	</g>
	<g>
		<g>
			<circle class="st0" cx="207.4" cy="491.8" r="4.5"/>
		</g>
		<g>
			<circle class="st0" cx="292.6" cy="8.2" r="4.5"/>
		</g>
	</g>
	<g>
		<g>
			<circle class="st0" cx="228.6" cy="494.6" r="4.5"/>
		</g>
		<g>
			<circle class="st0" cx="271.4" cy="5.4" r="4.5"/>
		</g>
	</g>
	<g>
		<g>
			<circle class="st0" cx="250" cy="495.5" r="4.5"/>
		</g>
		<g>
			<circle class="st0" cx="250" cy="4.5" r="4.5"/>
		</g>
	</g>
</g>
</svg>
