<?xml version="1.0" encoding="utf-8"?>
<!-- Generator: Adobe Illustrator 22.1.0, SVG Export Plug-In . SVG Version: 6.00 Build 0)  -->
<svg version="1.1" id="レイヤー_1" xmlns="http://www.w3.org/2000/svg" xmlns:xlink="http://www.w3.org/1999/xlink" x="0px"
	 y="0px" viewBox="0 0 500 500" style="enable-background:new 0 0 500 500;" xml:space="preserve">
<style type="text/css">
	.st0{fill:#FFFFFF;}
</style>
<g>
	<g>
		<g>
			<g>
				<circle class="st0" cx="250" cy="4.5" r="4"/>
			</g>
			<g>
				<circle class="st0" cx="250" cy="495.5" r="4"/>
			</g>
		</g>
		<g>
			<g>
				<circle class="st0" cx="228.6" cy="5.4" r="4"/>
			</g>
			<g>
				<circle class="st0" cx="271.4" cy="494.6" r="4"/>
			</g>
		</g>
		<g>
			<g>
				<circle class="st0" cx="207.4" cy="8.2" r="4"/>
			</g>
			<g>
				<circle class="st0" cx="292.6" cy="491.8" r="4"/>
			</g>
		</g>
		<g>
			<g>
				<circle class="st0" cx="186.4" cy="12.9" r="4"/>
			</g>
			<g>
				<circle class="st0" cx="313.6" cy="487.1" r="4"/>
			</g>
		</g>
		<g>
			<g>
				<circle class="st0" cx="166.1" cy="19.3" r="4"/>
			</g>
			<g>
				<circle class="st0" cx="333.9" cy="480.7" r="4"/>
			</g>
		</g>
		<g>
			<g>
				<circle class="st0" cx="146.2" cy="27.4" r="4"/>
			</g>
			<g>
				<circle class="st0" cx="353.8" cy="472.6" r="4"/>
			</g>
		</g>
		<g>
			<g>
				<circle class="st0" cx="127.2" cy="37.4" r="4"/>
			</g>
			<g>
				<circle class="st0" cx="372.8" cy="462.6" r="4"/>
			</g>
		</g>
		<g>
			<g>
				<circle class="st0" cx="109.2" cy="48.9" r="4"/>
			</g>
			<g>
				<circle class="st0" cx="390.8" cy="451.1" r="4"/>
			</g>
		</g>
		<g>
			<g>
				<circle class="st0" cx="92.2" cy="62" r="4"/>
			</g>
			<g>
				<circle class="st0" cx="407.8" cy="438" r="4"/>
			</g>
		</g>
		<g>
			<g>
				<circle class="st0" cx="76.4" cy="76.4" r="4"/>
			</g>
			<g>
				<circle class="st0" cx="423.6" cy="423.6" r="4"/>
			</g>
		</g>
		<g>
			<g>
				<circle class="st0" cx="62" cy="92.2" r="4"/>
			</g>
			<g>
				<circle class="st0" cx="438" cy="407.8" r="4"/>
			</g>
		</g>
		<g>
			<g>
				<circle class="st0" cx="48.9" cy="109.2" r="4"/>
			</g>
			<g>
				<circle class="st0" cx="451.1" cy="390.8" r="4"/>
			</g>
		</g>
		<g>
			<g>
				<circle class="st0" cx="37.4" cy="127.2" r="4"/>
			</g>
			<g>
				<circle class="st0" cx="462.6" cy="372.8" r="4"/>
			</g>
		</g>
		<g>
			<g>
				<circle class="st0" cx="27.4" cy="146.2" r="4"/>
			</g>
			<g>
				<circle class="st0" cx="472.6" cy="353.8" r="4"/>
			</g>
		</g>
		<g>
			<g>
				<circle class="st0" cx="19.3" cy="166.1" r="4"/>
			</g>
			<g>
				<circle class="st0" cx="480.7" cy="333.9" r="4"/>
			</g>
		</g>
		<g>
			<g>
				<circle class="st0" cx="12.9" cy="186.4" r="4"/>
			</g>
			<g>
				<circle class="st0" cx="487.1" cy="313.6" r="4"/>
			</g>
		</g>
		<g>
			<g>
				<circle class="st0" cx="8.2" cy="207.4" r="4"/>
			</g>
			<g>
				<circle class="st0" cx="491.8" cy="292.6" r="4"/>
			</g>
		</g>
		<g>
			<g>
				<circle class="st0" cx="5.4" cy="228.6" r="4"/>
			</g>
			<g>
				<circle class="st0" cx="494.6" cy="271.4" r="4"/>
			</g>
		</g>
		<g>
			<g>
				<circle class="st0" cx="4.5" cy="250" r="4"/>
			</g>
			<g>
				<circle class="st0" cx="495.5" cy="250" r="4"/>
			</g>
		</g>
		<g>
			<g>
				<circle class="st0" cx="5.4" cy="271.4" r="4"/>
			</g>
			<g>
				<circle class="st0" cx="494.6" cy="228.6" r="4"/>
			</g>
		</g>
		<g>
			<g>
				<circle class="st0" cx="8.2" cy="292.6" r="4"/>
			</g>
			<g>
				<circle class="st0" cx="491.8" cy="207.4" r="4"/>
			</g>
		</g>
		<g>
			<g>
				<circle class="st0" cx="12.9" cy="313.6" r="4"/>
			</g>
			<g>
				<circle class="st0" cx="487.1" cy="186.4" r="4"/>
			</g>
		</g>
		<g>
			<g>
				<circle class="st0" cx="19.3" cy="333.9" r="4"/>
			</g>
			<g>
				<circle class="st0" cx="480.7" cy="166.1" r="4"/>
			</g>
		</g>
		<g>
			<g>
				<circle class="st0" cx="27.4" cy="353.8" r="4"/>
			</g>
			<g>
				<circle class="st0" cx="472.6" cy="146.2" r="4"/>
			</g>
		</g>
		<g>
			<g>
				<circle class="st0" cx="37.4" cy="372.8" r="4"/>
			</g>
			<g>
				<circle class="st0" cx="462.6" cy="127.2" r="4"/>
			</g>
		</g>
		<g>
			<g>
				<circle class="st0" cx="48.9" cy="390.8" r="4"/>
			</g>
			<g>
				<circle class="st0" cx="451.1" cy="109.2" r="4"/>
			</g>
		</g>
		<g>
			<g>
				<circle class="st0" cx="62" cy="407.8" r="4"/>
			</g>
			<g>
				<circle class="st0" cx="438" cy="92.2" r="4"/>
			</g>
		</g>
		<g>
			<g>
				<circle class="st0" cx="76.4" cy="423.6" r="4"/>
			</g>
			<g>
				<circle class="st0" cx="423.6" cy="76.4" r="4"/>
			</g>
		</g>
		<g>
			<g>
				<circle class="st0" cx="92.2" cy="438" r="4"/>
			</g>
			<g>
				<circle class="st0" cx="407.8" cy="62" r="4"/>
			</g>
		</g>
		<g>
			<g>
				<circle class="st0" cx="109.2" cy="451.1" r="4"/>
			</g>
			<g>
				<circle class="st0" cx="390.8" cy="48.9" r="4"/>
			</g>
		</g>
		<g>
			<g>
				<circle class="st0" cx="127.2" cy="462.6" r="4"/>
			</g>
			<g>
				<circle class="st0" cx="372.8" cy="37.4" r="4"/>
			</g>
		</g>
		<g>
			<g>
				<circle class="st0" cx="146.2" cy="472.6" r="4"/>
			</g>
			<g>
				<circle class="st0" cx="353.8" cy="27.4" r="4"/>
			</g>
		</g>
		<g>
			<g>
				<circle class="st0" cx="166.1" cy="480.7" r="4"/>
			</g>
			<g>
				<circle class="st0" cx="333.9" cy="19.3" r="4"/>
			</g>
		</g>
		<g>
			<g>
				<circle class="st0" cx="186.4" cy="487.1" r="4"/>
			</g>
			<g>
				<circle class="st0" cx="313.6" cy="12.9" r="4"/>
			</g>
		</g>
		<g>
			<g>
				<circle class="st0" cx="207.4" cy="491.8" r="4"/>
			</g>
			<g>
				<circle class="st0" cx="292.6" cy="8.2" r="4"/>
			</g>
		</g>
		<g>
			<g>
				<circle class="st0" cx="228.6" cy="494.6" r="4"/>
			</g>
			<g>
				<circle class="st0" cx="271.4" cy="5.4" r="4"/>
			</g>
		</g>
	</g>
	<g>
		<path class="st0" d="M53.6,266.1c-1-0.1-1.8-0.5-2.4-1.3c-0.6-0.7-1-1.6-1-2.6v-36.3c0-1,0.3-1.9,0.9-2.6c0.6-0.7,1.4-1.2,2.4-1.3
			c2.2-0.3,4.6-0.4,7.3-0.4c14.2,0,21.4,7.3,21.4,21.9c0,15.4-7.1,23.1-21.4,23.1C58.3,266.5,55.8,266.4,53.6,266.1z M55.1,226.5
			v34.8c0,0.3,0.2,0.5,0.5,0.6c1.6,0.3,3.3,0.4,5.3,0.4c5.8,0,10-1.5,12.8-4.5c2.7-3,4-7.9,4-14.6c0-6.1-1.4-10.6-4.1-13.5
			s-7-4.4-12.7-4.4c-2,0-3.7,0.1-5.3,0.4C55.3,226,55.1,226.2,55.1,226.5z"/>
		<path class="st0" d="M93.3,265.2c-0.5,0.5-1,0.7-1.7,0.7s-1.3-0.2-1.7-0.7c-0.5-0.5-0.7-1-0.7-1.7V237c0-0.6,0.2-1.2,0.7-1.6
			c0.4-0.4,1-0.7,1.6-0.7s1.2,0.2,1.6,0.7c0.4,0.4,0.7,1,0.7,1.6v4.6c0,0,0,0.1,0.1,0.1s0.1,0,0.1-0.1c1.2-2,2.9-3.6,5.1-4.8
			s4.6-1.9,7.4-2c0.6,0,1,0.1,1.4,0.5s0.6,0.9,0.6,1.4s-0.2,1-0.6,1.4s-0.9,0.6-1.4,0.7c-4,0.2-7,1.3-9.2,3.5
			c-2.2,2.1-3.2,5.1-3.2,9v12.4C94,264.1,93.7,264.7,93.3,265.2z"/>
		<path class="st0" d="M138.7,262.2c-2.5,2.8-6,4.3-10.5,4.3s-8-1.4-10.5-4.3c-2.5-2.8-3.8-6.8-3.8-11.9s1.3-9.1,3.8-11.9
			c2.5-2.8,6-4.3,10.5-4.3s8,1.4,10.5,4.3c2.5,2.8,3.8,6.8,3.8,11.9C142.5,255.4,141.3,259.4,138.7,262.2z M137.8,250.3
			c0-8.4-3.2-12.6-9.6-12.6c-6.4,0-9.6,4.2-9.6,12.6s3.2,12.6,9.6,12.6C134.6,262.9,137.8,258.7,137.8,250.3z"/>
		<path class="st0" d="M153.3,278.3c-0.4,0.4-1,0.7-1.6,0.7s-1.2-0.2-1.6-0.7c-0.5-0.4-0.7-1-0.7-1.6v-39.9c0-0.6,0.2-1.1,0.6-1.5
			c0.4-0.4,0.9-0.6,1.5-0.6s1.1,0.2,1.6,0.6c0.4,0.4,0.7,0.9,0.7,1.5l0.1,2.3c0,0,0,0.1,0.1,0.1l0.1-0.1c2.6-3.3,6-5,10-5
			c3.9,0,6.9,1.4,9.2,4.2s3.4,6.8,3.4,12c0,5-1.2,9-3.5,11.9s-5.4,4.4-9.1,4.4c-4.1,0-7.4-1.5-9.8-4.6l-0.1-0.1c0,0-0.1,0-0.1,0.1
			v14.9C153.9,277.4,153.7,277.9,153.3,278.3z M153.9,246v8.5c0,2.3,0.9,4.2,2.7,5.9c1.8,1.6,3.9,2.5,6.3,2.5c2.8,0,5-1.1,6.6-3.2
			s2.4-5.3,2.4-9.4c0-8.4-3-12.6-9-12.6c-2.4,0-4.6,0.8-6.3,2.5C154.8,241.9,153.9,243.8,153.9,246z"/>
		<path class="st0" d="M200.4,239.5c-0.5,0-1-0.2-1.3-0.5s-0.5-0.8-0.5-1.3s0.2-0.9,0.5-1.3c0.3-0.3,0.8-0.5,1.3-0.5h3.9
			c0.4,0,0.5-0.2,0.5-0.5v-2.9c0-3.8,0.8-6.6,2.4-8.4c1.6-1.7,4-2.6,7.4-2.6c1.3,0,2.5,0.1,3.7,0.4c0.5,0.1,0.9,0.4,1.3,0.8
			c0.3,0.4,0.5,0.9,0.5,1.5c0,0.4-0.2,0.8-0.5,1.1c-0.4,0.3-0.7,0.3-1.1,0.2c-1-0.2-1.9-0.4-2.9-0.4c-2.1,0-3.6,0.5-4.5,1.6
			c-0.9,1-1.3,2.9-1.3,5.6v3.1c0,0.4,0.2,0.5,0.5,0.5h14.4c0.9,0,1.7,0.3,2.4,1s1,1.5,1,2.4v24.2c0,0.6-0.2,1.2-0.7,1.7
			s-1,0.7-1.7,0.7c-0.6,0-1.2-0.2-1.7-0.7s-0.7-1-0.7-1.7V240c0-0.4-0.2-0.5-0.5-0.5h-12.5c-0.3,0-0.5,0.2-0.5,0.5v23.5
			c0,0.6-0.2,1.2-0.7,1.7s-1,0.7-1.7,0.7s-1.3-0.2-1.7-0.7c-0.5-0.5-0.7-1-0.7-1.7V240c0-0.4-0.2-0.5-0.5-0.5H200.4z M223.2,223.4
			c0-0.6,0.2-1.2,0.7-1.7s1-0.7,1.7-0.7c0.6,0,1.2,0.2,1.7,0.7s0.7,1,0.7,1.7v1.8c0,0.6-0.2,1.2-0.7,1.7s-1,0.7-1.7,0.7
			c-0.6,0-1.2-0.2-1.7-0.7s-0.7-1-0.7-1.7V223.4z"/>
		<path class="st0" d="M243.8,265.2c-0.5,0.5-1,0.7-1.7,0.7s-1.3-0.2-1.7-0.7s-0.7-1-0.7-1.7v-40.1c0-0.6,0.2-1.2,0.7-1.7
			s1-0.7,1.7-0.7s1.3,0.2,1.7,0.7s0.7,1,0.7,1.7v40.1C244.5,264.1,244.3,264.7,243.8,265.2z"/>
		<path class="st0" d="M268.7,266.5c-4.9,0-8.7-1.4-11.2-4.1c-2.6-2.7-3.8-6.8-3.8-12.1c0-5.6,1.2-9.6,3.7-12.3
			c2.5-2.6,5.8-3.9,10.1-3.9c7.9,0,12.1,4.7,12.5,14c0,1-0.3,1.8-1,2.4c-0.7,0.7-1.5,1-2.5,1h-17.8c-0.3,0-0.5,0.2-0.5,0.5
			c0.4,7.3,4,11,10.9,11c2.3,0,4.6-0.4,7-1.3c0.4-0.2,0.9-0.1,1.3,0.1c0.4,0.3,0.6,0.6,0.6,1.1c0,1.4-0.6,2.2-1.9,2.5
			C273.6,266.2,271.1,266.5,268.7,266.5z M267.5,237.6c-5.6,0-8.6,3.3-9.1,9.9c0,0.3,0.2,0.5,0.5,0.5H275c0.3,0,0.5-0.2,0.5-0.5
			C275.3,240.9,272.6,237.6,267.5,237.6z"/>
		<path class="st0" d="M297.1,251.9c-3.9-0.9-6.7-2.1-8.3-3.6c-1.7-1.5-2.5-3.4-2.5-5.7c0-2.6,1-4.7,3-6.3c2-1.5,4.8-2.3,8.5-2.3
			c2.8,0,5.5,0.4,8.2,1.1c1.2,0.3,1.9,1.1,1.9,2.5c0,0.5-0.2,0.8-0.5,1.1c-0.4,0.2-0.8,0.3-1.3,0.2c-2.6-0.8-5.3-1.2-7.9-1.2
			c-4.8,0-7.2,1.5-7.2,4.6c0,1.4,0.5,2.5,1.4,3.4s2.7,1.6,5.2,2.2c4.3,1,7.3,2.2,8.9,3.7s2.4,3.6,2.4,6.4c0,2.7-1,4.8-3.1,6.3
			s-5,2.3-8.7,2.3c-2.9,0-5.7-0.4-8.3-1.3c-1.2-0.4-1.9-1.3-1.9-2.6c0-0.4,0.2-0.8,0.6-1.1c0.4-0.3,0.8-0.3,1.3-0.1
			c2.6,1,5.3,1.5,8,1.5c5,0,7.6-1.7,7.6-5c0-1.4-0.5-2.6-1.5-3.6C301.7,253.4,299.9,252.6,297.1,251.9z"/>
		<path class="st0" d="M337.4,265.2c-0.4,0.4-1,0.7-1.6,0.7s-1.2-0.2-1.6-0.7c-0.5-0.4-0.7-1-0.7-1.6v-40.3c0-0.6,0.2-1.2,0.7-1.6
			c0.5-0.4,1-0.7,1.6-0.7s1.2,0.2,1.6,0.7c0.4,0.4,0.7,1,0.7,1.6v16.2c0,0,0,0.1,0.1,0.1c0,0,0.1,0,0.1-0.1c2.9-3.5,6.2-5.3,10-5.3
			c3.6,0,6.3,1,7.9,3s2.5,5.4,2.5,10.2v16.3c0,0.6-0.2,1.2-0.6,1.6s-1,0.7-1.6,0.7s-1.2-0.2-1.6-0.7c-0.4-0.4-0.7-1-0.7-1.6v-15.5
			c0-4-0.5-6.8-1.6-8.1c-1.1-1.4-2.9-2.1-5.5-2.1c-2.1,0-4.1,1-6.1,3s-2.9,4-2.9,6.1v16.7C338.1,264.3,337.8,264.8,337.4,265.2z"/>
		<path class="st0" d="M380.2,266.5c-4.9,0-8.7-1.4-11.2-4.1c-2.6-2.7-3.8-6.8-3.8-12.1c0-5.6,1.2-9.6,3.7-12.3
			c2.5-2.6,5.8-3.9,10.1-3.9c7.9,0,12.1,4.7,12.5,14c0,1-0.3,1.8-1,2.4c-0.7,0.7-1.5,1-2.5,1h-17.8c-0.3,0-0.5,0.2-0.5,0.5
			c0.4,7.3,4,11,10.9,11c2.3,0,4.6-0.4,7-1.3c0.4-0.2,0.9-0.1,1.3,0.1c0.4,0.3,0.6,0.6,0.6,1.1c0,1.4-0.6,2.2-1.9,2.5
			C385.1,266.2,382.6,266.5,380.2,266.5z M378.9,237.6c-5.6,0-8.6,3.3-9.1,9.9c0,0.3,0.2,0.5,0.5,0.5h16.1c0.3,0,0.5-0.2,0.5-0.5
			C386.7,240.9,384.1,237.6,378.9,237.6z"/>
		<path class="st0" d="M402.7,265.2c-0.5,0.5-1,0.7-1.7,0.7s-1.3-0.2-1.7-0.7c-0.5-0.5-0.7-1-0.7-1.7V237c0-0.6,0.2-1.2,0.7-1.6
			c0.4-0.4,1-0.7,1.6-0.7s1.2,0.2,1.6,0.7c0.4,0.4,0.7,1,0.7,1.6v4.6c0,0,0,0.1,0.1,0.1s0.1,0,0.1-0.1c1.2-2,2.9-3.6,5.1-4.8
			s4.6-1.9,7.4-2c0.6,0,1,0.1,1.4,0.5s0.6,0.9,0.6,1.4s-0.2,1-0.6,1.4s-0.9,0.6-1.4,0.7c-4,0.2-7,1.3-9.2,3.5
			c-2.2,2.1-3.2,5.1-3.2,9v12.4C403.4,264.1,403.2,264.7,402.7,265.2z"/>
		<path class="st0" d="M438.5,266.5c-4.9,0-8.7-1.4-11.2-4.1c-2.6-2.7-3.8-6.8-3.8-12.1c0-5.6,1.2-9.6,3.7-12.3
			c2.5-2.6,5.8-3.9,10.1-3.9c7.9,0,12.1,4.7,12.5,14c0,1-0.3,1.8-1,2.4c-0.7,0.7-1.5,1-2.5,1h-17.8c-0.3,0-0.5,0.2-0.5,0.5
			c0.4,7.3,4,11,10.9,11c2.3,0,4.6-0.4,7-1.3c0.4-0.2,0.9-0.1,1.3,0.1c0.4,0.3,0.6,0.6,0.6,1.1c0,1.4-0.6,2.2-1.9,2.5
			C443.4,266.2,440.9,266.5,438.5,266.5z M437.3,237.6c-5.6,0-8.6,3.3-9.1,9.9c0,0.3,0.2,0.5,0.5,0.5h16.1c0.3,0,0.5-0.2,0.5-0.5
			C445.1,240.9,442.4,237.6,437.3,237.6z"/>
	</g>
</g>
<g>
	<path class="st0" d="M196.9,408c-1.8,2-4.3,3-7.6,3c-3.2,0-5.7-1-7.6-3c-1.8-2-2.7-4.8-2.7-8.4s0.9-6.4,2.7-8.4c1.8-2,4.3-3,7.6-3
		c3.2,0,5.7,1,7.6,3c1.8,2,2.7,4.8,2.7,8.4S198.7,406,196.9,408z M195.1,399.6c0-5.3-1.9-8-5.8-8c-3.9,0-5.8,2.7-5.8,8
		c0,5.3,1.9,8,5.8,8C193.2,407.6,195.1,404.9,195.1,399.6z"/>
	<path class="st0" d="M208.1,409.9c-0.4,0.4-1,0.7-1.6,0.7c-0.6,0-1.2-0.2-1.6-0.7c-0.4-0.4-0.7-1-0.7-1.6v-17.3
		c0-0.6,0.2-1.1,0.6-1.6c0.4-0.4,0.9-0.6,1.6-0.6c0.6,0,1.1,0.2,1.6,0.6c0.4,0.4,0.7,0.9,0.7,1.6v2c0,0,0,0,0,0c0.1,0,0.1,0,0.1,0
		c0.8-1.1,2-2.1,3.4-2.8c1.4-0.7,2.9-1.2,4.6-1.3c0.5,0,0.9,0.1,1.3,0.5s0.5,0.8,0.5,1.3s-0.2,0.9-0.5,1.3c-0.4,0.4-0.8,0.5-1.3,0.6
		c-2.7,0.1-4.7,0.8-5.9,2.1c-1.3,1.3-1.9,3.2-1.9,5.6v8.2C208.8,408.9,208.6,409.4,208.1,409.9z"/>
	<path class="st0" d="M244.3,411c-3.4,0-6-1-7.8-2.9c-1.8-1.9-2.7-4.7-2.7-8.5c0-3.7,0.9-6.5,2.6-8.4c1.8-1.9,4.2-2.9,7.4-2.9
		c1.5,0,2.9,0.1,4.2,0.3c0.5,0.1,1,0.3,1.3,0.8c0.3,0.4,0.5,0.9,0.5,1.5c0,0.5-0.2,0.9-0.6,1.1c-0.4,0.3-0.8,0.4-1.3,0.3
		c-1.4-0.3-2.7-0.5-3.9-0.5c-1.9,0-3.4,0.6-4.3,1.9s-1.4,3.3-1.4,6c0,2.8,0.5,4.8,1.5,6c1,1.2,2.6,1.8,4.7,1.8
		c1.3,0,2.6-0.2,3.8-0.5c0.4-0.1,0.9-0.1,1.2,0.2c0.4,0.3,0.5,0.6,0.5,1.1c0,0.6-0.2,1.1-0.5,1.5c-0.4,0.4-0.8,0.7-1.3,0.8
		C247,410.8,245.6,411,244.3,411z"/>
	<path class="st0" d="M261.4,409.9c-0.5,0.4-1,0.7-1.6,0.7c-0.6,0-1.2-0.2-1.6-0.7c-0.5-0.4-0.7-1-0.7-1.6v-26.9
		c0-0.6,0.2-1.2,0.7-1.6c0.5-0.4,1-0.7,1.6-0.7c0.6,0,1.2,0.2,1.6,0.7c0.5,0.4,0.7,1,0.7,1.6v26.9
		C262.1,408.9,261.9,409.4,261.4,409.9z"/>
	<path class="st0" d="M271,379.7c0.5-0.4,1-0.7,1.6-0.7s1.2,0.2,1.6,0.7c0.5,0.4,0.7,1,0.7,1.6c0,0.6-0.2,1.2-0.7,1.6
		s-1,0.7-1.6,0.7s-1.2-0.2-1.6-0.7c-0.5-0.4-0.7-1-0.7-1.6C270.3,380.7,270.5,380.2,271,379.7z M274.2,409.9c-0.5,0.4-1,0.7-1.6,0.7
		s-1.2-0.2-1.6-0.7c-0.5-0.4-0.7-1-0.7-1.6V391c0-0.6,0.2-1.2,0.7-1.6c0.5-0.4,1-0.7,1.6-0.7s1.2,0.2,1.6,0.7c0.5,0.4,0.7,1,0.7,1.6
		v17.2C274.9,408.9,274.7,409.4,274.2,409.9z"/>
	<path class="st0" d="M291.5,411c-3.4,0-6-1-7.8-2.9c-1.8-1.9-2.7-4.7-2.7-8.5c0-3.7,0.9-6.5,2.6-8.4c1.8-1.9,4.2-2.9,7.4-2.9
		c1.5,0,2.9,0.1,4.2,0.3c0.5,0.1,1,0.3,1.3,0.8c0.3,0.4,0.5,0.9,0.5,1.5c0,0.5-0.2,0.9-0.6,1.1c-0.4,0.3-0.8,0.4-1.3,0.3
		c-1.4-0.3-2.7-0.5-3.9-0.5c-1.9,0-3.4,0.6-4.3,1.9s-1.4,3.3-1.4,6c0,2.8,0.5,4.8,1.5,6c1,1.2,2.6,1.8,4.7,1.8
		c1.3,0,2.6-0.2,3.8-0.5c0.4-0.1,0.9-0.1,1.2,0.2c0.4,0.3,0.5,0.6,0.5,1.1c0,0.6-0.2,1.1-0.5,1.5c-0.4,0.4-0.8,0.7-1.3,0.8
		C294.1,410.8,292.8,411,291.5,411z"/>
	<path class="st0" d="M307.1,409.9c-0.4,0.4-1,0.6-1.6,0.6c-0.6,0-1.1-0.2-1.6-0.6s-0.6-0.9-0.6-1.6v-27.1c0-0.6,0.2-1.1,0.6-1.6
		s0.9-0.6,1.6-0.6c0.6,0,1.1,0.2,1.6,0.6c0.4,0.4,0.7,0.9,0.7,1.6v17.1c0,0,0,0,0,0l0.1,0l7.5-7.9c1.1-1.1,2.4-1.7,4-1.7h0.5
		c0.4,0,0.8,0.2,0.9,0.6c0.2,0.4,0.1,0.8-0.2,1.1l-8.2,8.5c-0.1,0.1-0.1,0.3,0,0.5l8.2,9.3c0.3,0.3,0.4,0.7,0.2,1.1
		c-0.2,0.4-0.5,0.6-1,0.6h-0.5c-1.6,0-2.9-0.6-3.9-1.8l-7.6-8.7c0,0-0.1,0-0.1,0c0,0,0,0,0,0v8.3C307.8,409,307.6,409.5,307.1,409.9
		z"/>
</g>
</svg>
